<svg width="42" height="42" viewBox="0 0 42 42" fill="none" xmlns="http://www.w3.org/2000/svg">
<path d="M36.5039 0.708984H5.4961C2.85212 0.708984 0.708755 2.85235 0.708755 5.49633V36.5009C0.708755 39.1448 2.85212 41.2882 5.4961 41.2882H36.5039C39.1479 41.2882 41.2913 39.1448 41.2913 36.5009V5.49633C41.2913 2.85235 39.1479 0.708984 36.5039 0.708984Z" fill="#0477FF"/>
<path d="M17.2692 19.7796C17.2692 19.7796 20.7145 19.5236 20.7145 15.4844C20.7145 11.4452 17.8959 9.47314 14.3259 9.47314H2.57906V32.0481H14.3259C14.3259 32.0481 21.4955 32.2745 21.4955 25.3839C21.4955 25.3839 21.8105 19.7796 17.2692 19.7796ZM7.75359 13.4861H14.3161C14.3161 13.4861 15.9141 13.4861 15.9141 15.8355C15.9141 18.1849 14.9756 18.5261 13.9092 18.5261H7.75687L7.75359 13.4861ZM14.0208 28.0352H7.75687V22.0042H14.3194C14.3194 22.0042 16.6983 21.9714 16.6983 25.105C16.7048 27.7136 14.9658 28.0089 14.0241 28.0352H14.0208ZM31.0603 15.2186C22.3781 15.2186 22.388 23.891 22.388 23.891C22.388 23.891 21.7908 32.5206 31.0603 32.5206C31.0603 32.5206 38.7844 32.9603 38.7844 26.5192H34.8141C34.8141 26.5192 34.9453 28.9474 31.2047 28.9474C31.2047 28.9474 27.2311 29.2131 27.2311 25.0099H38.9287C38.9287 25.0099 40.1986 15.2186 31.0603 15.2186ZM34.5909 22.0042H27.1753C27.1753 22.0042 27.6609 18.5261 31.1489 18.5261C34.6369 18.5261 34.5909 22.0042 34.5909 22.0042ZM26.2041 10.8053H35.5162V13.5846H26.2041V10.8053Z" fill="white"/>
</svg>
