<svg width="42" height="42" viewBox="0 0 42 42" fill="none" xmlns="http://www.w3.org/2000/svg">
<path d="M28.5427 0H13.4574C6.04969 0 0.0446777 6.01781 0.0446777 13.4413V28.5587C0.0446777 35.9819 6.05002 42 13.4574 42H28.5427C35.9504 42 41.9554 35.9822 41.9554 28.5587V13.4413C41.9554 6.01781 35.9504 0 28.5427 0Z" fill="#13171A"/>
<path d="M12.6318 10.4373C13.2181 9.90569 13.9038 9.49542 14.6495 9.23017C15.3951 8.96491 16.1859 8.84992 16.9762 8.89184V10.8836C16.4569 10.855 15.9375 10.9373 15.4525 11.125C14.9675 11.3126 14.528 11.6013 14.1632 11.9719C13.4595 12.9624 13.1216 14.1666 13.2073 15.3785V26.5774C13.1216 27.7895 13.4594 28.9938 14.1632 29.9844C14.5251 30.3829 14.971 30.696 15.4687 30.9012C15.9664 31.1064 16.5035 31.1985 17.0411 31.1709V33.1189C16.2501 33.1594 15.4588 33.0426 14.7132 32.7754C13.9675 32.5082 13.2822 32.0959 12.6968 31.5623C12.1185 30.9128 11.6787 30.1522 11.4042 29.327C11.1298 28.5018 11.0264 27.6293 11.1004 26.7628V15.2371C11.0195 14.3752 11.1134 13.5058 11.3765 12.681C11.6397 11.8562 12.0666 11.0931 12.6318 10.4373Z" fill="#7E858B"/>
<path d="M19.5937 10.4374C20.1807 9.907 20.8665 9.49752 21.6119 9.23234C22.3573 8.96716 23.1476 8.85148 23.9377 8.8919V10.8836C23.4168 10.8548 22.8957 10.9369 22.4089 11.1245C21.9221 11.3122 21.4807 11.601 21.1139 11.972C20.4141 12.9639 20.0801 14.1679 20.1689 15.3786V26.5775C20.08 27.7883 20.414 28.9924 21.1139 29.9844C21.4769 30.3816 21.9231 30.6939 22.4206 30.8989C22.9181 31.104 23.4547 31.1967 23.9922 31.1706V33.119C23.1923 33.1655 22.3911 33.0517 21.6358 32.7844C20.8804 32.5171 20.186 32.1016 19.5934 31.5624C19.0175 30.912 18.5801 30.1511 18.3078 29.3262C18.0347 28.501 17.9327 27.6288 18.0079 26.7629V15.2372C17.9337 14.3715 18.0359 13.4997 18.3085 12.6747C18.581 11.8497 19.0184 11.0885 19.5937 10.4374Z" fill="#F7F8F9"/>
<path d="M26.5772 10.4373C27.7633 9.36711 29.3257 8.81129 30.9212 8.89183V10.8836C30.3987 10.8541 29.8758 10.9358 29.3872 11.1235C28.8986 11.3111 28.4554 11.6003 28.0869 11.9719C27.3963 12.9827 27.0812 14.2031 27.196 15.4218V26.5774C27.1074 27.7882 27.4415 28.9924 28.141 29.984C28.5045 30.3804 28.9507 30.6922 29.4479 30.8971C29.9452 31.1021 30.4814 31.1953 31.0187 31.1702V33.1186C29.4218 33.1953 27.8597 32.6355 26.675 31.562C26.0898 30.915 25.6418 30.1562 25.3582 29.3313C25.0745 28.5064 24.961 27.6325 25.0245 26.7625V15.2361C24.9484 14.3729 25.0466 13.5032 25.3133 12.6787C25.5801 11.8542 26.0099 11.0917 26.5772 10.4366V10.4373Z" fill="#7E858B"/>
</svg>
