<svg width="42" height="42" viewBox="0 0 42 42" fill="none" xmlns="http://www.w3.org/2000/svg">
<path d="M15.75 5.25H21V15.75H15.75C14.3576 15.75 13.0223 15.1969 12.0377 14.2123C11.0531 13.2277 10.5 11.8924 10.5 10.5C10.5 9.10761 11.0531 7.77226 12.0377 6.78769C13.0223 5.80312 14.3576 5.25 15.75 5.25Z" fill="#F4511E"/>
<path d="M26.25 15.75H21V5.25H26.25C27.6424 5.25 28.9777 5.80312 29.9623 6.78769C30.9469 7.77226 31.5 9.10761 31.5 10.5C31.5 11.8924 30.9469 13.2277 29.9623 14.2123C28.9777 15.1969 27.6424 15.75 26.25 15.75Z" fill="#FF8A65"/>
<path d="M21 21C21 23.8995 23.3505 26.25 26.25 26.25C29.1495 26.25 31.5 23.8995 31.5 21C31.5 18.1005 29.1495 15.75 26.25 15.75C23.3505 15.75 21 18.1005 21 21Z" fill="#29B6F6"/>
<path d="M15.75 15.75H21V26.25H15.75C14.3576 26.25 13.0223 25.6969 12.0377 24.7123C11.0531 23.7277 10.5 22.3924 10.5 21C10.5 19.6076 11.0531 18.2723 12.0377 17.2877C13.0223 16.3031 14.3576 15.75 15.75 15.75Z" fill="#7C4DFF"/>
<path d="M15.75 26.25H21V31.5C21 32.8924 20.4469 34.2277 19.4623 35.2123C18.4777 36.1969 17.1424 36.75 15.75 36.75C14.3576 36.75 13.0223 36.1969 12.0377 35.2123C11.0531 34.2277 10.5 32.8924 10.5 31.5C10.5 30.1076 11.0531 28.7723 12.0377 27.7877C13.0223 26.8031 14.3576 26.25 15.75 26.25Z" fill="#00E676"/>
</svg>
