<svg width="30" height="42" viewBox="0 0 30 42" fill="none" xmlns="http://www.w3.org/2000/svg">
<path d="M29.9478 8.23315L27.2243 38.5243L14.9817 41.8939L2.77287 38.529L0.052124 8.23315H29.9478Z" fill="#E44D26"/>
<path d="M15 39.3183L24.8926 36.5955L27.22 10.7102H15V39.3183Z" fill="#F16529"/>
<path d="M9.70549 18.1417H15V14.426H5.6153L5.70483 15.4229L6.62475 25.6622H15V21.9466H10.0476L9.70549 18.1417ZM10.549 27.5201H6.79198L7.31627 33.3543L14.9828 35.4671L15 35.4624V31.5966L14.9836 31.6009L10.8155 30.4835L10.549 27.5201Z" fill="#EBEBEB"/>
<path d="M2.83362 0H4.73557V1.86557H6.47545V0H8.37752V5.64941H6.47557V3.75766H4.73569V5.64941H2.83374L2.83362 0ZM10.8785 1.87348H9.2044V0H14.456V1.87348H12.7808V5.64941H10.8789V1.87348H10.8785ZM15.2895 0H17.2726L18.4926 1.98505L19.7113 0H21.6953V5.64941H19.8011V2.84925L18.4926 4.85792H18.4597L17.1504 2.84925V5.64941H15.2895V0ZM22.6418 0H24.5444V3.78209H27.219V5.64941H22.6417L22.6418 0Z" fill="black"/>
<path d="M14.9871 25.6622H19.5957L19.1612 30.4812L14.987 31.5997V35.4654L22.6596 33.3543L22.7159 32.7265L23.5955 22.9443L23.6868 21.9466H14.9871V25.6622ZM14.9871 18.1326V18.1417H24.0273L24.1023 17.3066L24.2729 15.4229L24.3624 14.426H14.9871V18.1326Z" fill="white"/>
</svg>
