<svg width="42" height="42" viewBox="0 0 42 42" fill="none" xmlns="http://www.w3.org/2000/svg">
<path d="M32.1562 0H9.84375C4.4072 0 0 4.4072 0 9.84375V32.1562C0 37.5928 4.4072 42 9.84375 42H32.1562C37.5928 42 42 37.5928 42 32.1562V9.84375C42 4.4072 37.5928 0 32.1562 0Z" fill="#F0DB4F"/>
<path d="M11.0434 35.0983L14.2574 33.1531C14.8775 34.2525 15.4416 35.1828 16.7946 35.1828C18.0915 35.1828 18.9092 34.6755 18.9092 32.7021V19.2821H22.8562V32.7579C22.8562 36.8459 20.4599 38.7067 16.9637 38.7067C13.8064 38.7067 11.9736 37.0714 11.0432 35.0979M25 34.6753L28.2137 32.8147C29.0597 34.1962 30.1593 35.2111 32.1044 35.2111C33.74 35.2111 34.7827 34.3934 34.7827 33.2657C34.7827 31.9125 33.7114 31.4331 31.907 30.644L30.9205 30.2208C28.0729 29.0088 26.1839 27.4863 26.1839 24.2723C26.1839 21.3119 28.4394 19.0564 31.9636 19.0564C34.4728 19.0564 36.2772 19.9305 37.5739 22.2141L34.5009 24.1876C33.8241 22.9754 33.0914 22.4961 31.9636 22.4961C30.8077 22.4961 30.0746 23.2292 30.0746 24.1876C30.0746 25.3717 30.8077 25.851 32.4991 26.5842L33.4858 27.007C36.8407 28.445 38.7297 29.9108 38.7297 33.2092C38.7297 36.7619 35.9387 38.707 32.1891 38.707C28.5241 38.707 26.1558 36.9591 25 34.6753Z" fill="#323330"/>
</svg>
