<svg width="42" height="42" viewBox="0 0 42 42" fill="none" xmlns="http://www.w3.org/2000/svg">
<path d="M8.078 33.25C7.27183 33.25 6.59925 32.9805 6.06025 32.4415C5.52125 31.9025 5.25117 31.2293 5.25 30.422V11.578C5.25 10.7718 5.52008 10.0992 6.06025 9.56025C6.60042 9.02125 7.27242 8.75117 8.07625 8.75H33.9237C34.7288 8.75 35.4008 9.02008 35.9398 9.56025C36.4788 10.1004 36.7488 10.773 36.75 11.578V30.4237C36.75 31.2288 36.4799 31.9013 35.9398 32.4415C35.3996 32.9817 34.7276 33.2512 33.9237 33.25H8.078ZM21 20.93C21.1458 20.93 21.2823 20.9078 21.4095 20.8635C21.5355 20.8192 21.6603 20.7649 21.784 20.7008L34.4347 12.418C34.6004 12.3177 34.7083 12.1806 34.7585 12.0068C34.8087 11.8329 34.7993 11.6597 34.7305 11.487C34.6862 11.2618 34.5392 11.0985 34.2895 10.997C34.041 10.8967 33.8001 10.9171 33.5667 11.0582L21 19.25L8.435 11.06C8.20167 10.9177 7.966 10.8873 7.728 10.969C7.49 11.0507 7.33717 11.2117 7.2695 11.452C7.20183 11.6317 7.19308 11.8142 7.24325 11.9997C7.29342 12.1852 7.40075 12.3253 7.56525 12.4198L20.216 20.7008C20.3397 20.7649 20.4645 20.8192 20.5905 20.8635C20.7177 20.9067 20.8542 20.9282 21 20.9282" fill="#0477FF"/>
</svg>
