<svg width="42" height="42" viewBox="0 0 42 42" fill="none" xmlns="http://www.w3.org/2000/svg">
<path d="M19.9256 4.60265C19.855 4.60905 19.6304 4.63152 19.4283 4.64744C14.7679 5.0676 10.4026 7.58235 7.63762 11.4473C6.09822 13.5964 5.11335 16.034 4.74143 18.6162C4.61001 19.5176 4.59393 19.7838 4.59393 21.0058C4.59393 22.2279 4.61001 22.4942 4.74159 23.3954C5.6331 29.5569 10.0178 34.7339 15.9644 36.6519C17.0294 36.9951 18.1519 37.2293 19.4285 37.3704C19.9257 37.4248 22.0746 37.4248 22.5719 37.3704C24.7754 37.1266 26.6421 36.5814 28.4832 35.6415C28.7654 35.4973 28.8201 35.4587 28.7815 35.4267C28.7559 35.4074 27.553 33.794 26.1097 31.8439L23.4861 28.2997L20.1982 23.4339C18.3893 20.7589 16.9011 18.5713 16.8881 18.5713C16.8753 18.5681 16.8625 20.73 16.8561 23.3698C16.8464 27.9917 16.8433 28.1778 16.7856 28.2867C16.7022 28.4439 16.6381 28.508 16.5032 28.5787C16.4007 28.6299 16.3108 28.6396 15.8265 28.6396H15.2716L15.124 28.5466C15.0325 28.4893 14.9583 28.4084 14.909 28.3125L14.8418 28.1681L14.8483 21.7372L14.8578 15.303L14.9573 15.1778C15.0086 15.1105 15.1177 15.0239 15.1947 14.9822C15.3261 14.9181 15.3774 14.9117 15.9323 14.9117C16.5867 14.9117 16.6957 14.9373 16.8658 15.1233C16.9139 15.1747 18.694 17.8561 20.8238 21.086C22.98 24.3553 25.1376 27.6237 27.2964 30.8912L29.8945 34.8269L30.0261 34.7403C31.1903 33.9833 32.4221 32.9056 33.3971 31.7829C35.4723 29.3997 36.8099 26.4938 37.2589 23.3954C37.3904 22.4942 37.4064 22.2279 37.4064 21.0058C37.4064 19.7837 37.3904 19.5176 37.2589 18.6162C36.3673 12.4547 31.9825 7.27785 26.0359 5.3598C24.9871 5.01969 23.8709 4.78558 22.62 4.64448C22.312 4.61233 20.1918 4.57722 19.9257 4.60281M26.6421 14.5268C26.796 14.6037 26.9212 14.7512 26.9662 14.9051C26.9917 14.9886 26.9981 16.772 26.9917 20.7909L26.9821 26.558L25.9654 24.9991L24.9454 23.4403V19.2482C24.9454 16.5379 24.9582 15.0142 24.9774 14.9404C25.0287 14.7609 25.141 14.6198 25.295 14.5363C25.4264 14.469 25.4747 14.4625 25.9782 14.4625C26.453 14.4625 26.5363 14.469 26.6421 14.5268Z" fill="black"/>
</svg>
