<svg width="42" height="42" viewBox="0 0 42 42" fill="none" xmlns="http://www.w3.org/2000/svg">
<path d="M21 39.375C20.5042 39.3752 20.0171 39.2449 19.5878 38.997L15.0938 36.3365C14.4231 35.9612 14.7499 35.8286 14.9717 35.7512C15.6852 35.5312 16.3682 35.2225 17.0048 34.8324C17.058 34.8074 17.1168 34.7965 17.1754 34.8009C17.234 34.8053 17.2906 34.8247 17.3395 34.8574L20.7926 36.9088C20.8569 36.9428 20.9286 36.9606 21.0013 36.9606C21.0741 36.9606 21.1457 36.9428 21.21 36.9088L34.6763 29.1362C34.7396 29.0987 34.7919 29.0453 34.8281 28.9813C34.8642 28.9172 34.8829 28.8448 34.8823 28.7713V13.2234C34.8825 13.1488 34.8634 13.0753 34.8268 13.0103C34.7903 12.9452 34.7375 12.8907 34.6736 12.852L21.2074 5.08592C21.144 5.04978 21.0723 5.03078 20.9994 5.03078C20.9264 5.03078 20.8547 5.04978 20.7913 5.08592L7.33296 12.8546C7.26876 12.8926 7.21546 12.9465 7.17821 13.0111C7.14096 13.0757 7.12102 13.1488 7.12034 13.2234V28.7647C7.12119 28.8379 7.14113 28.9095 7.17819 28.9726C7.21526 29.0357 7.26816 29.088 7.33165 29.1244L11.025 31.2559C13.0266 32.256 14.2525 31.0774 14.2525 29.8935V14.549C14.2525 14.4446 14.2939 14.3445 14.3678 14.2706C14.4416 14.1968 14.5418 14.1553 14.6462 14.1553H16.3525C16.4569 14.1553 16.557 14.1968 16.6309 14.2706C16.7047 14.3445 16.7462 14.4446 16.7462 14.549V29.8948C16.7462 32.5657 15.292 34.0948 12.7588 34.0948C11.6661 34.113 10.5907 33.8208 9.6574 33.2522L6.11759 31.2217C5.68821 30.9711 5.33193 30.6124 5.08417 30.1813C4.83641 29.7503 4.70581 29.2619 4.70534 28.7647V13.2234C4.70379 12.7253 4.83351 12.2356 5.08144 11.8036C5.32936 11.3715 5.68674 11.0125 6.11759 10.7625L19.5851 2.98723C20.0191 2.75035 20.5056 2.62622 21 2.62622C21.4944 2.62622 21.9809 2.75035 22.4149 2.98723L35.8811 10.7625C36.3104 11.0127 36.6667 11.3709 36.9146 11.8015C37.1626 12.2321 37.2937 12.72 37.2947 13.2169V28.7647C37.2941 29.262 37.1633 29.7505 36.9153 30.1816C36.6673 30.6126 36.3108 30.9712 35.8811 31.2217L22.4149 38.997C21.9848 39.2453 21.4967 39.3757 21 39.375Z" fill="#83CD29"/>
<path d="M18.4459 23.5633C18.4459 23.4589 18.4873 23.3587 18.5612 23.2849C18.635 23.211 18.7352 23.1695 18.8396 23.1695H20.5813C20.6744 23.1698 20.7643 23.2031 20.8352 23.2634C20.9061 23.3237 20.9533 23.4072 20.9685 23.499C21.231 25.2722 22.0185 26.166 25.5793 26.166C28.4156 26.166 29.6244 25.5242 29.6244 24.0187C29.6244 23.1512 29.2819 22.5067 24.8732 22.0749C21.1877 21.71 18.9092 20.8937 18.9092 17.9484C18.9092 15.2315 21.1995 13.6106 25.0385 13.6106C29.3527 13.6106 31.4882 15.1082 31.7585 18.3212C31.7627 18.3748 31.7558 18.4287 31.7383 18.4796C31.7207 18.5305 31.693 18.5772 31.6567 18.6169C31.6204 18.6566 31.5764 18.6885 31.5273 18.7106C31.4782 18.7326 31.4252 18.7444 31.3714 18.7451H29.6179C29.5299 18.7439 29.4449 18.7132 29.3764 18.658C29.3078 18.6028 29.2598 18.5263 29.2399 18.4406C28.8212 16.5755 27.7961 15.9797 25.0399 15.9797C21.9424 15.9797 21.5827 17.0585 21.5827 17.867C21.5827 18.8462 22.008 19.1323 26.1896 19.6848C30.3279 20.2322 32.294 21.0065 32.294 23.915C32.294 26.8498 29.8475 28.5298 25.5806 28.5298C19.6809 28.5377 18.4459 25.8326 18.4459 23.5633Z" fill="#83CD29"/>
</svg>
