<svg width="42" height="42" viewBox="0 0 42 42" fill="none" xmlns="http://www.w3.org/2000/svg">
<path d="M7.43761 0.525024H34.5624C38.6751 0.525024 42 3.84991 42 7.96263V34.0374C42 38.1501 38.6751 41.475 34.5624 41.475H7.43761C3.32489 41.475 0 38.1501 0 34.0374V7.96263C0 3.84991 3.32489 0.525024 7.43761 0.525024Z" fill="#001E36"/>
<path d="M15.0501 10.9374C14.5251 10.9374 14.0001 10.9374 13.4577 10.9551C12.915 10.9725 12.4074 10.9725 11.9349 10.9902C11.4624 11.0076 11.025 11.0076 10.605 11.025C10.2024 11.0424 9.92251 11.0424 9.6249 11.0424C9.50251 11.0424 9.45001 11.1123 9.45001 11.235V29.2425C9.45001 29.4 9.5199 29.4702 9.66001 29.4702H13.0551C13.1775 29.4525 13.2651 29.3475 13.2474 29.2251V23.6076C13.5798 23.6076 13.8249 23.6076 14.0001 23.625C14.175 23.6424 14.4549 23.6424 14.8749 23.6424C16.3101 23.6424 17.6226 23.4849 18.8124 23.0475C19.95 22.6275 20.9301 21.8925 21.63 20.9124C22.33 19.9324 22.68 18.6899 22.68 17.1849C22.68 16.3974 22.5402 15.645 22.2777 14.91C21.9996 14.1612 21.5639 13.4808 21 12.915C20.3345 12.2685 19.5334 11.7782 18.6549 11.4798C17.6748 11.1123 16.485 10.9374 15.0501 10.9374ZM15.4406 14.3843C16.064 14.3961 16.6711 14.5051 17.2374 14.7348C17.745 14.9274 18.165 15.2775 18.4626 15.7323C18.7417 16.2029 18.8814 16.7432 18.8652 17.2902C18.8652 18.06 18.69 18.6552 18.3225 19.0926C17.9373 19.53 17.4474 19.8627 16.8876 20.0202C16.2399 20.2302 15.5574 20.3349 14.8749 20.3349H13.9473C13.7373 20.3349 13.5102 20.3175 13.2651 20.3001V14.4201C13.3875 14.4024 13.6326 14.385 13.9827 14.4027C14.3151 14.385 14.7174 14.385 15.1725 14.385C15.2622 14.3828 15.3516 14.3826 15.4406 14.3843ZM30.1176 15.2778C28.875 15.2778 27.8424 15.4701 27.0201 15.8901C26.2677 16.2402 25.62 16.8 25.1826 17.4999C24.7977 18.1476 24.5874 18.8649 24.5874 19.6176C24.5724 20.2367 24.7108 20.8499 24.99 21.4026C25.3173 21.9911 25.7717 22.4993 26.3202 22.89C27.0901 23.4165 27.9254 23.8401 28.8051 24.15C29.6625 24.4824 30.24 24.7449 30.5202 24.9723C30.8001 25.2 30.9402 25.4274 30.9402 25.6725C30.9402 25.9875 30.7476 26.2851 30.4677 26.4075C30.1527 26.565 29.6802 26.6526 29.0151 26.6526C28.3152 26.6526 27.615 26.565 26.9499 26.3901C26.1862 26.2195 25.454 25.9302 24.78 25.5327C24.7275 25.4976 24.675 25.4802 24.6225 25.5153C24.57 25.5501 24.5526 25.62 24.5526 25.6725V28.7175C24.5352 28.8576 24.6225 28.98 24.7452 29.0499C25.3127 29.315 25.913 29.5034 26.5302 29.61C27.3177 29.7675 28.1049 29.8374 28.9098 29.8374C30.1698 29.8374 31.2201 29.6451 32.0775 29.2776C32.865 28.9626 33.5475 28.4202 34.0374 27.72C34.4962 27.0316 34.7343 26.2197 34.7199 25.3926C34.7372 24.7678 34.5989 24.1484 34.3176 23.5902C33.9849 22.995 33.5124 22.5051 32.9349 22.1376C32.0901 21.607 31.1855 21.1782 30.24 20.8599C29.8178 20.6851 29.4032 20.4924 28.9974 20.2824C28.77 20.16 28.56 20.0025 28.4025 19.8099C28.2975 19.6698 28.2276 19.5126 28.2276 19.3551C28.2276 19.1976 28.2801 19.0227 28.3674 18.8826C28.4901 18.7077 28.6824 18.585 28.9098 18.5325C29.2425 18.4452 29.61 18.3924 29.9598 18.4098C30.6249 18.4098 31.2723 18.4974 31.92 18.6375C32.5152 18.7599 33.075 18.9525 33.6 19.2327C33.6699 19.2675 33.7575 19.2675 33.915 19.2327C33.9424 19.2124 33.9645 19.186 33.9798 19.1556C33.995 19.1251 34.0028 19.0915 34.0026 19.0575V16.2051C34.0026 16.1349 33.9849 16.065 33.9675 15.9951C33.9324 15.9252 33.8625 15.855 33.7926 15.8376C33.3099 15.6403 32.8042 15.505 32.2875 15.435C31.5689 15.3304 30.8438 15.2781 30.1176 15.2778Z" fill="#31A8FF"/>
</svg>
