<svg width="42" height="42" viewBox="0 0 42 42" fill="none" xmlns="http://www.w3.org/2000/svg">
<path fill-rule="evenodd" clip-rule="evenodd" d="M26.6122 15.568C26.5547 15.4646 26.5274 15.347 26.5336 15.2288C26.5398 15.1105 26.5792 14.9964 26.6473 14.8995L32.4048 6.42954C32.4813 6.31701 32.5251 6.18545 32.5313 6.04949C32.5375 5.91354 32.5058 5.77854 32.4398 5.65954C32.3741 5.53917 32.2768 5.43904 32.1583 5.36996C32.0399 5.30087 31.9048 5.26545 31.7677 5.26754H29.526C29.4 5.26916 29.2762 5.301 29.1651 5.36038C29.0539 5.41976 28.9586 5.50495 28.8872 5.60879L22.1637 15.533C22.0804 15.6568 21.9674 15.7576 21.835 15.8264C21.7027 15.8952 21.5551 15.9297 21.406 15.9268H20.5607C20.4118 15.9269 20.2651 15.8912 20.1329 15.8227C20.0007 15.7542 19.8869 15.6548 19.8012 15.533L13.1128 5.59304C13.0438 5.4867 12.9491 5.3995 12.8374 5.33954C12.7257 5.27958 12.6007 5.24879 12.474 5.25004H10.234C10.0946 5.24947 9.95784 5.28762 9.83887 5.36023C9.71991 5.43284 9.62345 5.53707 9.56025 5.66129C9.49791 5.78139 9.46832 5.9158 9.47447 6.05098C9.48061 6.18616 9.52227 6.31733 9.59525 6.43129L15.3527 14.9188C15.4206 15.0118 15.46 15.1224 15.4662 15.2373C15.4724 15.3523 15.4452 15.4665 15.3878 15.5663C15.3343 15.6708 15.2527 15.7582 15.1522 15.8188C15.0518 15.8794 14.9363 15.9108 14.819 15.9093H6.0095C5.91009 15.9084 5.81149 15.9271 5.71938 15.9645C5.62727 16.0019 5.54349 16.0572 5.47287 16.1272C5.40225 16.1972 5.3462 16.2804 5.30794 16.3722C5.26969 16.4639 5.25 16.5624 5.25 16.6618V18.5098C5.25 18.9385 5.59475 19.2623 6.0095 19.2623H35.9922C36.0915 19.263 36.1899 19.244 36.2818 19.2065C36.3737 19.169 36.4573 19.1137 36.5277 19.0437C36.5982 18.9738 36.6541 18.8906 36.6922 18.799C36.7304 18.7073 36.75 18.609 36.75 18.5098V16.6618C36.75 16.2698 36.456 15.9618 36.078 15.9093H27.181C27.0634 15.913 26.9473 15.8828 26.8464 15.8223C26.7456 15.7618 26.6643 15.6735 26.6122 15.568ZM19.8187 26.467L13.0952 36.3895C13.0263 36.4959 12.9316 36.5831 12.8199 36.643C12.7082 36.703 12.5832 36.7338 12.4565 36.7325H10.2165C10.0797 36.7311 9.94557 36.694 9.82742 36.625C9.70928 36.5559 9.61116 36.4573 9.54275 36.3388C9.47673 36.2198 9.44504 36.0848 9.45122 35.9488C9.4574 35.8129 9.5012 35.6813 9.57775 35.5688L15.3178 27.0988C15.3851 27.0023 15.4241 26.8888 15.4303 26.7713C15.4365 26.6538 15.4096 26.5368 15.3527 26.4338C15.2963 26.3318 15.2141 26.2464 15.1143 26.1862C15.0144 26.126 14.9005 26.0931 14.784 26.0908H6.0095C5.91009 26.0917 5.81149 26.0729 5.71938 26.0355C5.62727 25.9981 5.54349 25.9428 5.47287 25.8729C5.40225 25.8029 5.3462 25.7196 5.30794 25.6279C5.26969 25.5361 5.25 25.4377 5.25 25.3383V23.4903C5.25 23.3909 5.26969 23.2924 5.30794 23.2007C5.3462 23.1089 5.40225 23.0257 5.47287 22.9557C5.54349 22.8857 5.62727 22.8304 5.71938 22.793C5.81149 22.7556 5.91009 22.7369 6.0095 22.7378H35.9922C36.0915 22.7371 36.1899 22.756 36.2818 22.7936C36.3737 22.8311 36.4573 22.8864 36.5277 22.9563C36.5982 23.0263 36.6541 23.1095 36.6922 23.2011C36.7304 23.2927 36.75 23.391 36.75 23.4903V25.3383C36.75 25.4375 36.7304 25.5358 36.6922 25.6275C36.6541 25.7191 36.5982 25.8023 36.5277 25.8722C36.4573 25.9422 36.3737 25.9975 36.2818 26.035C36.1899 26.0725 36.0915 26.0915 35.9922 26.0908H27.1985C27.0805 26.0848 26.9635 26.114 26.8622 26.1748C26.7609 26.2356 26.68 26.3251 26.6297 26.432C26.5716 26.5322 26.5439 26.6471 26.5502 26.7628C26.5564 26.8784 26.5962 26.9897 26.6648 27.083L32.4223 35.5705C32.496 35.6857 32.5375 35.8186 32.5425 35.9553C32.5476 36.0919 32.516 36.2275 32.451 36.3478C32.386 36.4682 32.29 36.5689 32.1729 36.6396C32.0559 36.7104 31.922 36.7485 31.7852 36.75H29.5435C29.421 36.7518 29.3 36.723 29.1915 36.6662C29.083 36.6093 28.9905 36.5263 28.9223 36.4245L22.1988 26.502C22.1155 26.3777 22.0022 26.2764 21.8695 26.2073C21.7368 26.1381 21.5889 26.1035 21.4393 26.1065H20.5957C20.4468 26.1064 20.3001 26.1421 20.1679 26.2106C20.0357 26.2792 19.9219 26.3785 19.8363 26.5003L19.8187 26.467Z" fill="#141414"/>
</svg>
