<svg width="42" height="42" viewBox="0 0 42 42" fill="none" xmlns="http://www.w3.org/2000/svg">
<path d="M21.0013 8.40063C15.4012 8.40063 11.9024 11.1995 10.5013 16.7997C12.6007 14.0004 15.0515 12.9507 17.8507 13.6506C19.449 14.049 20.5912 15.2079 21.8561 16.4922C23.9148 18.5814 26.2976 21 31.5013 21C37.1011 21 40.6003 18.2007 42.0013 12.5993C39.9013 15.4 37.4515 16.4502 34.6517 15.75C33.0537 15.3513 31.9128 14.1927 30.6462 12.9084C28.5889 10.8192 26.2067 8.40063 21.0013 8.40063ZM10.5013 21C4.90156 21 1.40244 23.7992 0.00134277 29.4006C2.10112 26.6 4.55091 25.5498 7.35069 26.25C8.94898 26.6487 10.0912 27.8073 11.3561 29.0915C13.4148 31.1807 15.7976 33.5993 21.0013 33.5993C26.6011 33.5993 30.1002 30.8004 31.5013 25.2003C29.4013 27.9997 26.9515 29.0493 24.1517 28.3493C22.5537 27.951 21.4128 26.792 20.1462 25.5078C18.0889 23.4186 15.7067 21 10.5013 21Z" fill="#38BDF8"/>
</svg>
