<svg width="42" height="42" viewBox="0 0 42 42" fill="none" xmlns="http://www.w3.org/2000/svg">
<path d="M32.1562 0H9.84375C4.4072 0 0 4.4072 0 9.84375V32.1562C0 37.5928 4.4072 42 9.84375 42H32.1562C37.5928 42 42 37.5928 42 32.1562V9.84375C42 4.4072 37.5928 0 32.1562 0Z" fill="#007ACC"/>
<path d="M9.28776 21.1393L9.27448 22.8593H14.741V38.3926H18.6078V22.8593H24.0744V21.1726C24.0744 20.2392 24.0545 19.4593 24.0278 19.4393C24.0078 19.4127 20.6811 19.3992 16.6478 19.406L9.30778 19.426L9.28776 21.1393ZM33.8899 19.3771C34.9565 19.6438 35.7699 20.1172 36.5166 20.8904C36.9033 21.3038 37.4765 22.0572 37.5232 22.2372C37.5365 22.2905 35.7099 23.5172 34.6033 24.2038C34.5632 24.2305 34.4031 24.0571 34.2231 23.7905C33.6832 23.0038 33.1165 22.6637 32.2498 22.6039C30.9765 22.5171 30.1565 23.1838 30.1632 24.2971C30.1632 24.6238 30.2098 24.8171 30.3432 25.0838C30.6231 25.6638 31.1432 26.0105 32.7766 26.7171C35.7832 28.0105 37.0698 28.8638 37.8699 30.0771C38.7632 31.4304 38.9632 33.5905 38.3565 35.1971C37.6899 36.9437 36.0365 38.1304 33.7098 38.5238C32.9899 38.6505 31.2831 38.6305 30.5099 38.4905C28.8232 38.1905 27.2232 37.3572 26.2366 36.2639C25.8499 35.8371 25.0965 34.7238 25.1433 34.6437C25.1631 34.6172 25.3365 34.5105 25.5298 34.3972C25.7165 34.2905 26.4233 33.8838 27.0899 33.4971L28.2965 32.7971L28.5499 33.1705C28.9032 33.7104 29.6765 34.4505 30.1432 34.6971C31.4831 35.4039 33.3232 35.3038 34.2299 34.4905C34.6166 34.1371 34.7765 33.7704 34.7765 33.2305C34.7765 32.7437 34.7165 32.5305 34.4632 32.1638C34.1365 31.6972 33.4699 31.3038 31.5765 30.4838C29.4099 29.5504 28.4765 28.9705 27.6232 28.0504C27.1299 27.5172 26.6631 26.6637 26.4699 25.9504C26.3099 25.3572 26.2699 23.8704 26.3965 23.2704C26.8431 21.1772 28.4232 19.7172 30.7032 19.2837C31.4433 19.1438 33.1631 19.1971 33.8899 19.3771Z" fill="white"/>
</svg>
